<?xml version="1.0" standalone="no"?>
<!DOCTYPE svg PUBLIC "-//W3C//DTD SVG 20010904//EN"
 "http://www.w3.org/TR/2001/REC-SVG-20010904/DTD/svg10.dtd">
<svg version="1.0" xmlns="http://www.w3.org/2000/svg"
 width="260.000000pt" height="260.000000pt" viewBox="0 0 260.000000 260.000000"
 preserveAspectRatio="xMidYMid meet">
<metadata>
Created by potrace 1.11, written by Peter Selinger 2001-2013
</metadata>
<g transform="translate(0.000000,260.000000) scale(0.100000,-0.100000)"
fill="#000000" stroke="none">
<path d="M378 1857 c-74 -26 -165 -83 -204 -130 -14 -16 -37 -53 -52 -81 -23
-44 -27 -63 -27 -136 0 -109 28 -171 118 -257 67 -65 135 -103 262 -148 96
-34 133 -58 141 -91 21 -85 -140 -123 -272 -65 -60 27 -85 50 -135 122 -44 66
-92 109 -120 109 -11 0 -31 -11 -44 -25 -21 -20 -25 -34 -25 -83 0 -116 57
-250 119 -282 84 -42 180 -62 331 -67 231 -8 358 33 469 153 73 77 96 137 95
244 0 98 -28 162 -98 228 -64 61 -101 80 -242 127 -60 19 -124 44 -142 55 -54
33 -56 107 -2 135 71 37 160 6 283 -98 68 -58 83 -67 118 -67 51 0 75 13 95
52 33 63 1 169 -77 253 -46 49 -77 61 -125 45 -28 -10 -50 -8 -123 9 -123 29
-254 28 -343 -2z"/>
<path d="M1274 1866 c-88 -17 -112 -30 -129 -68 -18 -44 -9 -65 50 -108 45
-33 54 -46 61 -82 18 -95 -1 -628 -25 -691 -5 -14 -29 -35 -53 -49 -37 -20
-43 -28 -43 -57 0 -61 66 -90 202 -91 96 0 167 16 203 47 38 31 39 66 4 90
-76 52 -74 47 -74 215 0 84 4 159 9 166 23 38 46 5 133 -188 128 -283 156
-322 202 -272 9 11 55 104 101 206 96 213 117 248 149 244 20 -3 21 -7 21
-150 l0 -147 -44 -45 c-112 -114 -9 -173 288 -164 187 6 241 30 241 105 0 21
-12 38 -45 68 l-45 40 -11 120 c-12 120 -7 512 7 569 4 15 26 48 50 73 45 46
54 76 33 115 -41 77 -335 92 -419 22 -18 -16 -66 -99 -130 -225 -98 -192 -122
-225 -153 -213 -8 3 -50 69 -92 147 -195 355 -170 329 -317 333 -59 2 -134 -2
-174 -10z"/>
</g>
</svg>
